<svg xmlns="http://www.w3.org/2000/svg" version="1.1" xmlns:xlink="http://www.w3.org/1999/xlink" xmlns:svgjs="http://svgjs.dev/svgjs" width="1440" height="560" preserveAspectRatio="none" viewBox="0 0 1440 560"><g mask="url(&quot;#SvgjsMask1010&quot;)" fill="none"><path d="M364.65 0C398.94 14.57 393.85 59.5 420 59.5C443.98 59.5 434.15 13.07 464.91 0C504.15 -16.68 512.45 0 560 0C630 0 630 0 700 0C770 0 770 0 840 0C910 0 910 0 980 0C1040.13 0 1058.93 -23.93 1100.26 0C1128.93 16.6 1106.7 81.05 1120 81.05C1134.07 81.05 1123.03 18.51 1155 0C1193.03 -22.01 1207.5 0 1260 0C1330 0 1330 0 1400 0C1424.7 0 1426.55 -7.62 1449.41 0C1496.55 15.72 1516.36 10.13 1540 46.67C1561.65 80.13 1540 93.34 1540 140C1540 210 1540 210 1540 280C1540 350 1540 350 1540 420C1540 490 1569.35 519.35 1540 560C1518.8 589.35 1481.55 575.8 1438.89 560C1411.55 549.87 1419.11 508.15 1400 508.15C1381.25 508.15 1389.86 550.11 1363.16 560C1319.86 576.04 1311.58 560 1260 560C1190 560 1190 560 1120 560C1065.91 560 1063.82 567.33 1011.82 560C993.82 557.47 996.74 540.28 980 540.28C956.69 540.28 957.09 556.43 931.72 560C887.09 566.29 885.86 560 840 560C770 560 770 560 700 560C630 560 630 560 560 560C513.34 560 510.68 569.21 466.67 560C440.68 554.56 444.99 530.7 420 530.7C379.66 530.7 378.96 551.01 336 560C308.96 565.66 308 560 280 560C210 560 210 560 140 560C80.94 560 75.02 571.55 21.88 560C5.02 556.34 2.79 547.41 0 529.57C-8.15 477.41 0 474.79 0 420C0 350 0 350 0 280C0 210 0 210 0 140C0 70 -35 35 0 0C35 -35 70 0 140 0C210 0 210 0 280 0C322.33 0 328.94 -15.18 364.65 0" stroke="rgba(73, 48, 175, 0.49)" stroke-width="2"></path><path d="M840 123.42C823.46 123.42 809.18 123.65 806.84 140C797.98 201.94 842.31 221.47 817.6 280C788.89 348.01 758.66 336.39 700 393.08C686.22 406.39 672.73 406.91 672.73 420C672.73 432.44 682.73 441.63 700 444.14C766.37 453.8 777.26 454.54 840 444.35C851.57 442.47 845.76 432.58 848.62 420C864.43 350.4 871.35 350.7 877.33 280C883.19 210.7 887.13 202.17 872.31 140C868.47 123.88 856.2 123.42 840 123.42" stroke="rgba(73, 48, 175, 0.49)" stroke-width="2"></path><path d="M280 260.78C269.18 260.78 262.5 269.6 262.5 280C262.5 293.21 268.04 308 280 308C299.06 308 324.55 292.28 324.55 280C324.55 268.67 300.2 260.78 280 260.78" stroke="rgba(73, 48, 175, 0.49)" stroke-width="2"></path><path d="M560 261.02C538.1 261.02 511.3 271.17 511.3 280C511.3 288.66 537.59 296 560 296C569.82 296 575.77 288.33 575.77 280C575.77 270.84 570.34 261.02 560 261.02" stroke="rgba(73, 48, 175, 0.49)" stroke-width="2"></path><path d="M1260 382.94C1248.48 382.94 1240.31 402.98 1240.31 420C1240.31 431.2 1249.22 439.38 1260 439.38C1273.71 439.38 1289.3 432.03 1289.3 420C1289.3 403.81 1272.97 382.94 1260 382.94" stroke="rgba(73, 48, 175, 0.49)" stroke-width="2"></path><path d="M41.18 0C78.16 54.9 60.97 73.91 94.29 140C110.38 171.91 118.23 167.17 140 196C171.09 237.17 171.57 236.95 200 280C241.57 342.95 224.86 389.53 280 408C334.86 426.37 347.6 369.71 420 353.68C487.6 338.71 498.27 368.18 560 346C600.81 331.34 625.07 314.38 625.07 280C625.07 242.23 600.42 230.7 560 201.69C502.88 160.7 436.61 185.85 430 140C422.08 85.01 475.31 59.91 530.94 0C540.31 -10.09 545.47 0 560 0C630 0 630 0 700 0C770 0 770 0 840 0C910 0 910 0 980 0C1017.69 0 1049.98 -23.77 1055.38 0C1065.89 46.23 1015.15 69.19 1011.82 140C1008.57 209.19 1008.32 225.15 1042.22 280C1062.41 312.65 1090.75 286.45 1120 315C1162.46 356.45 1147.65 371.64 1185.63 420C1217.65 460.76 1224.31 455.22 1260 493.23C1290.05 525.22 1317.11 539.77 1317.11 560C1317.11 573.15 1288.55 560 1260 560C1190 560 1190 560 1120 560C1105.68 560 1103.92 566.19 1091.36 560C1033.92 531.68 1032.4 529.83 980 490.99C937.95 459.83 907.6 463.54 902.46 420C895.15 358.05 939.73 352.27 955.11 280C969.52 212.27 991.14 191.2 962.05 140C933.58 89.89 901.19 77.37 840 77.37C777.53 77.37 731.37 91.23 714.74 140C696.83 192.54 775.39 216.99 770.93 280C768.02 321.1 735.24 313.87 700 348.21C663.41 383.87 627.27 385.09 627.27 420C627.27 453.17 660.57 456.33 700 484.37C759.01 526.33 824.15 539.6 824.15 560C824.15 577.42 762.07 560 700 560C639.07 560 634.79 569.01 578.15 560C564.79 557.88 571.69 545.91 560 537.73C492.62 490.56 495.77 475.99 420 449.3C355.77 426.67 339.33 414.46 280 439.09C205.99 469.81 218.38 503.82 153.33 560C148.38 564.28 146.67 560 140 560C135.63 560 132.15 564.07 131.25 560C116.6 494.07 145.57 466.33 108.89 420C79.94 383.43 26.94 428.85 0 394.21C-27.5 358.85 0 337.11 0 280C0 210 0 210 0 140C0 70 -15.91 54.09 0 0C4.68 -15.91 31.01 -15.1 41.18 0" stroke="rgba(73, 48, 175, 0.49)" stroke-width="2"></path><path d="M204 140C200.63 79.83 233.71 65.44 269.23 0C271.71 -4.56 274.62 0 280 0C281.63 0 282.17 -1.2 283.26 0C345.51 68.8 407.61 84.59 406.67 140C405.98 180.67 340.58 192.16 280 192.16C239.24 192.16 206.01 175.91 204 140" stroke="rgba(73, 48, 175, 0.49)" stroke-width="2"></path><path d="M1260 35C1244.08 35 1234.55 11.02 1234.55 0C1234.55 -6.48 1247.28 0 1260 0C1286.66 0 1313.33 -7.97 1313.33 0C1313.33 9.53 1283.47 35 1260 35" stroke="rgba(73, 48, 175, 0.49)" stroke-width="2"></path><path d="M1358.82 140C1379.83 109.86 1369.03 86.02 1400 79.13C1459.62 65.87 1485.52 76.01 1540 99.7C1555.52 106.45 1540 119.85 1540 140C1540 210 1540 210 1540 280C1540 350 1540 350 1540 420C1540 490 1559.09 509.09 1540 560C1532.84 579.09 1506.03 575.44 1487.5 560C1436.03 517.11 1446.47 499.03 1400 443.33C1388.07 429.03 1382.84 434.16 1370.7 420C1312.84 352.5 1263.03 351.42 1260 280C1257.09 211.42 1309.83 210.29 1358.82 140" stroke="rgba(73, 48, 175, 0.49)" stroke-width="2"></path><path d="M0 100C6.12 100 10.09 120.85 22.86 140C70.09 210.85 126.66 232.77 120 280C115.23 313.82 50.8 302.11 0 302.11C-9.2 302.11 0 291.06 0 280C0 210 0 210 0 140C0 120 -5.31 100 0 100" stroke="rgba(73, 48, 175, 0.49)" stroke-width="2"></path><path d="M555 140C555 136.16 557.25 130.67 560 130.67C562.93 130.67 566.36 136.35 566.36 140C566.36 142.2 563.13 142.37 560 142.37C557.45 142.37 555 142.01 555 140" stroke="rgba(73, 48, 175, 0.49)" stroke-width="2"></path><path d="M700 42C667.9 36.84 645.22 11.71 645.22 0C645.22 -9.29 672.61 0 700 0C770 0 770 0 840 0C910 0 910 0 980 0C995.26 0 1010.51 -9.65 1010.51 0C1010.51 22.51 1008.23 59.14 980 64.32C922.97 74.8 910.84 36.97 840 31.32C770.84 25.81 765.29 52.5 700 42" stroke="rgba(73, 48, 175, 0.49)" stroke-width="2"></path><path d="M674.37 280C674.37 255.74 687.46 226.47 700 226.47C712.41 226.47 724.27 255.57 724.27 280C724.27 294 712.29 303.33 700 303.33C687.34 303.33 674.37 294.17 674.37 280" stroke="rgba(73, 48, 175, 0.49)" stroke-width="2"></path><path d="M1347.5 280C1347.5 245.21 1364.34 213.71 1400 210C1460.59 203.71 1478.3 229.15 1540 260C1548.3 264.15 1540 270 1540 280C1540 350 1540 350 1540 420C1540 490 1541.89 491.89 1540 560C1539.95 561.89 1536.92 561.74 1536.11 560C1504.26 491.74 1515.19 483.19 1474.67 420C1447.13 377.06 1434.85 386.1 1400 347.74C1371.26 316.1 1347.5 314.08 1347.5 280" stroke="rgba(73, 48, 175, 0.49)" stroke-width="2"></path><path d="M500 420C500 405.2 532.76 396 560 396C573.67 396 581.82 406.8 581.82 420C581.82 437.89 575.63 458.18 560 458.18C534.72 458.18 500 436.29 500 420" stroke="rgba(73, 48, 175, 0.49)" stroke-width="2"></path><path d="M956.31 420C956.31 395.04 956.07 367.56 980 365C1037.92 358.81 1053.94 378.43 1120 402.5C1129.41 405.93 1130.94 410.59 1130.94 420C1130.94 436 1135.08 451.16 1120 453.33C1059.61 462.01 1046.61 455.25 980 441.69C964.77 438.59 956.31 433.39 956.31 420" stroke="rgba(73, 48, 175, 0.49)" stroke-width="2"></path><path d="M642.96 560C642.96 550.43 671.41 524.6 700 524.6C728.98 524.6 758.11 550.45 758.11 560C758.11 568.15 729.06 560 700 560C671.48 560 642.96 568.13 642.96 560" stroke="rgba(73, 48, 175, 0.49)" stroke-width="2"></path><path d="M1221.82 560C1221.82 556.68 1242.69 547.08 1260 547.08C1267.3 547.08 1271.05 556.08 1271.05 560C1271.05 562.54 1265.53 560 1260 560C1240.91 560 1221.82 563.14 1221.82 560" stroke="rgba(73, 48, 175, 0.49)" stroke-width="2"></path></g><defs><mask id="SvgjsMask1010"><rect width="1440" height="560" fill="#ffffff"></rect></mask></defs></svg>